<?xml version="1.0" encoding="utf-8"?>
<!-- Generator: Adobe Illustrator 14.0.0, SVG Export Plug-In . SVG Version: 6.00 Build 43363)  -->
<!DOCTYPE svg PUBLIC "-//W3C//DTD SVG 1.1//EN" "http://www.w3.org/Graphics/SVG/1.1/DTD/svg11.dtd">
<svg version="1.1" id="Layer_1" xmlns="http://www.w3.org/2000/svg" xmlns:xlink="http://www.w3.org/1999/xlink" x="0px" y="0px"
	 width="150px" height="150px" viewBox="-9.75 -46.916 150 150" enable-background="new -9.75 -46.916 150 150"
	 xml:space="preserve">
<g id="Your_Icon">
	<g>
		<path d="M29.882-26.25c-1.945,0-3.246,1.582-3.246,3.526V6.208H24.04v-28.932c0-1.944-1.302-3.526-3.246-3.526
			c-1.945,0-3.246,1.582-3.246,3.526V6.208H16.25v-28.932c0-1.944-1.302-3.526-3.246-3.526c-1.945,0-3.246,1.582-3.246,3.526V6.208
			H7.162v-28.932c0-1.944-1.302-3.526-3.246-3.526c-1.944,0-3.246,1.582-3.246,3.526V6.897c0,0.313-0.077,0.97,0,1.258
			c0.708,6.864,5.193,12.247,10.386,14.857v58.641c0,3.504,2.335,6.347,5.842,6.347c3.506,0,5.842-2.843,5.842-6.347V23.013
			c5.193-2.61,9.678-7.344,10.387-14.208c0.078-0.29,0-1.595,0-1.907v-29.621C33.128-24.667,31.826-26.25,29.882-26.25z"/>
		<path d="M124.12-26.25c-3.507,0-9.2,4.23-9.2,18.337V32.99l2.597,1.026v47.637c0,3.504,2.985,6.347,6.491,6.347
			c3.508,0,6.492-2.843,6.492-6.347V38.635V23.118v-43.02C130.5-23.407,127.627-26.25,124.12-26.25z"/>
		<g>
			<path d="M69.784,1.961c-22.592,0-40.904,18.314-40.904,40.903c0,22.592,18.312,40.906,40.904,40.906
				c22.591,0,40.907-18.314,40.907-40.906C110.691,20.273,92.378,1.961,69.784,1.961z M69.784,76.594
				c-18.597,0-33.729-15.13-33.729-33.729c0-18.597,15.132-33.728,33.729-33.728s33.729,15.132,33.729,33.728
				C103.515,61.464,88.384,76.594,69.784,76.594z"/>
			<path d="M69.784,14.533c-15.623,0-28.332,12.71-28.332,28.332c0,15.622,12.709,28.334,28.332,28.334
				c15.622,0,28.332-12.712,28.332-28.334C98.116,27.243,85.406,14.533,69.784,14.533z"/>
		</g>
	</g>
</g>
</svg>
